<mxfile host="app.diagrams.net" modified="2022-05-25T13:05:20.951Z" agent="5.0 (X11)" etag="FttZ-zqYI1Cyt5D8uOJ0" version="16.5.3" type="github">
  <diagram id="D-6fW6A4Df2_lMWwTRG9" name="Page-1">
    <mxGraphModel dx="1422" dy="764" grid="1" gridSize="10" guides="1" tooltips="1" connect="1" arrows="1" fold="1" page="1" pageScale="1" pageWidth="850" pageHeight="1100" math="0" shadow="0">
      <root>
        <mxCell id="0" />
        <mxCell id="1" parent="0" />
        <mxCell id="NMRsIpriQPwaLPY4j_5Q-1" value="&lt;div&gt;database&lt;/div&gt;&lt;div&gt;(mysql)&lt;/div&gt;" style="shape=cylinder3;whiteSpace=wrap;html=1;boundedLbl=1;backgroundOutline=1;size=15;" vertex="1" parent="1">
          <mxGeometry x="590" y="25" width="60" height="80" as="geometry" />
        </mxCell>
        <mxCell id="NMRsIpriQPwaLPY4j_5Q-2" value="&lt;div&gt;cache&lt;/div&gt;&lt;div&gt;(redis)&lt;br&gt;&lt;/div&gt;" style="shape=cylinder3;whiteSpace=wrap;html=1;boundedLbl=1;backgroundOutline=1;size=15;" vertex="1" parent="1">
          <mxGeometry x="640" y="200" width="60" height="80" as="geometry" />
        </mxCell>
        <mxCell id="NMRsIpriQPwaLPY4j_5Q-3" value="app server running docker engine" style="points=[[0,0],[0.25,0],[0.5,0],[0.75,0],[1,0],[1,0.25],[1,0.5],[1,0.75],[1,1],[0.75,1],[0.5,1],[0.25,1],[0,1],[0,0.75],[0,0.5],[0,0.25]];outlineConnect=0;gradientColor=none;html=1;whiteSpace=wrap;fontSize=12;fontStyle=0;container=1;pointerEvents=0;collapsible=0;recursiveResize=0;shape=mxgraph.aws4.group;grIcon=mxgraph.aws4.group_on_premise;strokeColor=#5A6C86;fillColor=none;verticalAlign=top;align=left;spacingLeft=30;fontColor=#5A6C86;dashed=0;" vertex="1" parent="1">
          <mxGeometry x="240" y="120" width="280" height="280" as="geometry" />
        </mxCell>
        <mxCell id="NMRsIpriQPwaLPY4j_5Q-4" value="&lt;div&gt;apps are running in&lt;/div&gt;&lt;div&gt;&amp;nbsp;docker containers&lt;/div&gt;" style="shape=image;html=1;verticalAlign=top;verticalLabelPosition=bottom;labelBackgroundColor=#ffffff;imageAspect=0;aspect=fixed;image=https://cdn0.iconfinder.com/data/icons/social-media-2104/24/social_media_social_media_logo_docker-128.png" vertex="1" parent="NMRsIpriQPwaLPY4j_5Q-3">
          <mxGeometry x="30" y="40" width="90" height="90" as="geometry" />
        </mxCell>
        <mxCell id="NMRsIpriQPwaLPY4j_5Q-5" value="&lt;div&gt;nginx reverse proxy&lt;/div&gt;&lt;div&gt;tcp/ssl port 80/443&lt;br&gt;&lt;/div&gt;" style="shape=image;html=1;verticalAlign=top;verticalLabelPosition=bottom;labelBackgroundColor=#ffffff;imageAspect=0;aspect=fixed;image=https://cdn1.iconfinder.com/data/icons/unicons-line-vol-3/24/docker-128.png" vertex="1" parent="NMRsIpriQPwaLPY4j_5Q-3">
          <mxGeometry x="40" y="230" width="50" height="50" as="geometry" />
        </mxCell>
        <mxCell id="NMRsIpriQPwaLPY4j_5Q-7" value="&lt;div&gt;MANAGER&lt;/div&gt;&lt;div&gt;tcp/ssl port 7000&lt;br&gt;&lt;/div&gt;" style="sketch=0;outlineConnect=0;fontColor=#232F3E;gradientColor=none;strokeColor=#232F3E;fillColor=#ffffff;dashed=0;verticalLabelPosition=bottom;verticalAlign=top;align=center;html=1;fontSize=12;fontStyle=0;aspect=fixed;shape=mxgraph.aws4.resourceIcon;resIcon=mxgraph.aws4.http_protocol;" vertex="1" parent="NMRsIpriQPwaLPY4j_5Q-3">
          <mxGeometry x="173" y="220" width="60" height="60" as="geometry" />
        </mxCell>
        <mxCell id="NMRsIpriQPwaLPY4j_5Q-13" value="&lt;div&gt;every app has its&lt;/div&gt;&lt;div&gt;own folder for data&lt;/div&gt;&lt;div&gt;storage&lt;br&gt;&lt;/div&gt;" style="sketch=0;pointerEvents=1;shadow=0;dashed=0;html=1;strokeColor=none;fillColor=#505050;labelPosition=center;verticalLabelPosition=bottom;verticalAlign=top;outlineConnect=0;align=center;shape=mxgraph.office.concepts.folders;" vertex="1" parent="NMRsIpriQPwaLPY4j_5Q-3">
          <mxGeometry x="186" y="100" width="47" height="40" as="geometry" />
        </mxCell>
        <mxCell id="NMRsIpriQPwaLPY4j_5Q-17" value="" style="endArrow=classic;html=1;rounded=0;shape=link;" edge="1" parent="NMRsIpriQPwaLPY4j_5Q-3" source="NMRsIpriQPwaLPY4j_5Q-4" target="NMRsIpriQPwaLPY4j_5Q-13">
          <mxGeometry width="50" height="50" relative="1" as="geometry">
            <mxPoint x="280" y="210" as="sourcePoint" />
            <mxPoint x="330" y="160" as="targetPoint" />
          </mxGeometry>
        </mxCell>
        <mxCell id="NMRsIpriQPwaLPY4j_5Q-21" value="" style="endArrow=classic;html=1;rounded=0;exitX=0.5;exitY=0;exitDx=0;exitDy=0;" edge="1" parent="NMRsIpriQPwaLPY4j_5Q-3" source="NMRsIpriQPwaLPY4j_5Q-5" target="NMRsIpriQPwaLPY4j_5Q-4">
          <mxGeometry width="50" height="50" relative="1" as="geometry">
            <mxPoint x="280" y="210" as="sourcePoint" />
            <mxPoint x="330" y="160" as="targetPoint" />
          </mxGeometry>
        </mxCell>
        <mxCell id="NMRsIpriQPwaLPY4j_5Q-11" value="&lt;div&gt;Seller of the application&lt;/div&gt;&lt;div&gt;or application admin&lt;br&gt;&lt;/div&gt;" style="sketch=0;pointerEvents=1;shadow=0;dashed=0;html=1;strokeColor=none;labelPosition=center;verticalLabelPosition=bottom;verticalAlign=top;align=center;fillColor=#515151;shape=mxgraph.mscae.system_center.admin_console" vertex="1" parent="1">
          <mxGeometry x="640" y="500" width="50" height="36" as="geometry" />
        </mxCell>
        <mxCell id="NMRsIpriQPwaLPY4j_5Q-16" value="" style="endArrow=classic;html=1;rounded=0;entryX=0;entryY=0.5;entryDx=0;entryDy=0;entryPerimeter=0;exitX=1.033;exitY=0.167;exitDx=0;exitDy=0;exitPerimeter=0;shape=link;" edge="1" parent="1" source="NMRsIpriQPwaLPY4j_5Q-4" target="NMRsIpriQPwaLPY4j_5Q-1">
          <mxGeometry width="50" height="50" relative="1" as="geometry">
            <mxPoint x="520" y="330" as="sourcePoint" />
            <mxPoint x="570" y="280" as="targetPoint" />
          </mxGeometry>
        </mxCell>
        <mxCell id="NMRsIpriQPwaLPY4j_5Q-18" value="" style="endArrow=classic;html=1;rounded=0;entryX=0;entryY=0;entryDx=0;entryDy=27.5;entryPerimeter=0;exitX=1;exitY=0.25;exitDx=0;exitDy=0;shape=link;" edge="1" parent="1" source="NMRsIpriQPwaLPY4j_5Q-4" target="NMRsIpriQPwaLPY4j_5Q-2">
          <mxGeometry width="50" height="50" relative="1" as="geometry">
            <mxPoint x="520" y="330" as="sourcePoint" />
            <mxPoint x="570" y="280" as="targetPoint" />
          </mxGeometry>
        </mxCell>
        <mxCell id="NMRsIpriQPwaLPY4j_5Q-19" value="" style="endArrow=classic;html=1;rounded=0;exitX=1.044;exitY=0.545;exitDx=0;exitDy=0;exitPerimeter=0;" edge="1" parent="1" source="NMRsIpriQPwaLPY4j_5Q-30" target="NMRsIpriQPwaLPY4j_5Q-5">
          <mxGeometry width="50" height="50" relative="1" as="geometry">
            <mxPoint x="400" y="330" as="sourcePoint" />
            <mxPoint x="450" y="280" as="targetPoint" />
          </mxGeometry>
        </mxCell>
        <mxCell id="NMRsIpriQPwaLPY4j_5Q-22" value="" style="endArrow=classic;html=1;rounded=0;exitX=0.28;exitY=-0.111;exitDx=0;exitDy=0;exitPerimeter=0;" edge="1" parent="1" source="NMRsIpriQPwaLPY4j_5Q-11" target="NMRsIpriQPwaLPY4j_5Q-7">
          <mxGeometry width="50" height="50" relative="1" as="geometry">
            <mxPoint x="520" y="330" as="sourcePoint" />
            <mxPoint x="570" y="280" as="targetPoint" />
          </mxGeometry>
        </mxCell>
        <mxCell id="NMRsIpriQPwaLPY4j_5Q-24" value="Every application has its own database and database user with access rights for that database only" style="text;html=1;strokeColor=none;fillColor=none;align=center;verticalAlign=middle;whiteSpace=wrap;rounded=0;" vertex="1" parent="1">
          <mxGeometry x="670" y="10" width="120" height="95" as="geometry" />
        </mxCell>
        <mxCell id="NMRsIpriQPwaLPY4j_5Q-26" value="internal network" style="verticalLabelPosition=bottom;html=1;verticalAlign=top;align=center;strokeColor=none;fillColor=#00BEF2;shape=mxgraph.azure.virtual_network;pointerEvents=1;" vertex="1" parent="1">
          <mxGeometry x="550" y="140" width="50" height="27.500000000000004" as="geometry" />
        </mxCell>
        <mxCell id="NMRsIpriQPwaLPY4j_5Q-28" value="&lt;div&gt;Seller creates new app&lt;/div&gt;&lt;div&gt;(docker container) for every new client/tenant&lt;br&gt;&lt;/div&gt;" style="text;html=1;strokeColor=none;fillColor=none;align=center;verticalAlign=middle;whiteSpace=wrap;rounded=0;" vertex="1" parent="1">
          <mxGeometry x="580" y="400" width="140" height="60" as="geometry" />
        </mxCell>
        <mxCell id="NMRsIpriQPwaLPY4j_5Q-29" value="&lt;div&gt;Official WEB page&lt;/div&gt;&lt;div&gt;of the application&lt;/div&gt;" style="sketch=0;pointerEvents=1;shadow=0;dashed=0;html=1;strokeColor=none;fillColor=#505050;labelPosition=center;verticalLabelPosition=bottom;verticalAlign=top;outlineConnect=0;align=center;shape=mxgraph.office.concepts.web_page;" vertex="1" parent="1">
          <mxGeometry x="250" y="510" width="50" height="54" as="geometry" />
        </mxCell>
        <mxCell id="NMRsIpriQPwaLPY4j_5Q-30" value="&lt;div&gt;App user&lt;/div&gt;" style="aspect=fixed;html=1;points=[];align=center;image;fontSize=12;image=img/lib/azure2/azure_stack/User_Subscriptions.svg;" vertex="1" parent="1">
          <mxGeometry x="50" y="420" width="41.21" height="40" as="geometry" />
        </mxCell>
        <mxCell id="NMRsIpriQPwaLPY4j_5Q-32" value="New user" style="sketch=0;aspect=fixed;pointerEvents=1;shadow=0;dashed=0;html=1;strokeColor=none;labelPosition=center;verticalLabelPosition=bottom;verticalAlign=top;align=center;fillColor=#00188D;shape=mxgraph.azure.user" vertex="1" parent="1">
          <mxGeometry x="70" y="590" width="28.2" height="30" as="geometry" />
        </mxCell>
        <mxCell id="NMRsIpriQPwaLPY4j_5Q-33" value="" style="endArrow=classic;html=1;rounded=0;" edge="1" parent="1" source="NMRsIpriQPwaLPY4j_5Q-32" target="NMRsIpriQPwaLPY4j_5Q-29">
          <mxGeometry width="50" height="50" relative="1" as="geometry">
            <mxPoint x="400" y="510" as="sourcePoint" />
            <mxPoint x="450" y="460" as="targetPoint" />
          </mxGeometry>
        </mxCell>
        <mxCell id="NMRsIpriQPwaLPY4j_5Q-34" value="" style="endArrow=classic;html=1;rounded=0;" edge="1" parent="1" source="NMRsIpriQPwaLPY4j_5Q-29" target="NMRsIpriQPwaLPY4j_5Q-7">
          <mxGeometry width="50" height="50" relative="1" as="geometry">
            <mxPoint x="400" y="510" as="sourcePoint" />
            <mxPoint x="450" y="460" as="targetPoint" />
          </mxGeometry>
        </mxCell>
        <mxCell id="NMRsIpriQPwaLPY4j_5Q-36" value="API" style="edgeLabel;html=1;align=center;verticalAlign=middle;resizable=0;points=[];" vertex="1" connectable="0" parent="NMRsIpriQPwaLPY4j_5Q-34">
          <mxGeometry x="0.244" y="-1" relative="1" as="geometry">
            <mxPoint as="offset" />
          </mxGeometry>
        </mxCell>
        <mxCell id="NMRsIpriQPwaLPY4j_5Q-35" value="&lt;div&gt;If we use a website&lt;/div&gt;&lt;div&gt;to sell the app, a new user can create an instance of the application &lt;span class=&quot;VIiyi&quot; lang=&quot;en&quot;&gt;&lt;span class=&quot;JLqJ4b ChMk0b&quot;&gt;&lt;span class=&quot;Q4iAWc&quot;&gt;himself.&lt;/span&gt;&lt;/span&gt;&lt;/span&gt;&lt;/div&gt;" style="text;html=1;strokeColor=none;fillColor=none;align=center;verticalAlign=middle;whiteSpace=wrap;rounded=0;" vertex="1" parent="1">
          <mxGeometry x="330" y="490" width="120" height="60" as="geometry" />
        </mxCell>
      </root>
    </mxGraphModel>
  </diagram>
</mxfile>
